# xmcd
#
# Track frame offsets:
#	182
#	16482
#	32747
#	45890
#	60657
#	77452
#	90882
#	109975
#	128435
#	143722
#	164637
#	178030
#
# Disc length: 2559 seconds
#
# Revision: 2
# Processed by: cddbd v1.5.2PL0 Copyright (c) Steve Scherf et al.
# Submitted via: audiograbber 1.83.01
#
DISCID=8b09fd0c
DTITLE=Various Artist - Boulevard des Hitrs des années 70 [CD2)
DYEAR=1970
DGENRE=Rock
TTITLE0=Mungo Jerry - In the summertimes
TTITLE1=Donovan - Mellow yellow
TTITLE2=Claude François - Le lundi au soleil
TTITLE3=M - Pop musik
TTITLE4=Earth, Wind and Fire - Fantasy
TTITLE5=Plastic bertrand - Ca plane pour moi
TTITLE6=Santana - Oye como va
TTITLE7=Titanic - Sultana
TTITLE8=Danyel Gérard - Butterfly
TTITLE9=The O'Jays - Now that i found love
TTITLE10=Sly and The Family Stone - Family affair
TTITLE11=Dave - Vanina
EXTD=
EXTT0=
EXTT1=
EXTT2=
EXTT3=
EXTT4=
EXTT5=
EXTT6=
EXTT7=
EXTT8=
EXTT9=
EXTT10=
EXTT11=
PLAYORDER=
